<?xml version="1.0" encoding="UTF-8" standalone="no"?>
<!-- Created with Inkscape (http://www.inkscape.org/) -->

<svg
   xmlns:dc="http://purl.org/dc/elements/1.1/"
   xmlns:cc="http://creativecommons.org/ns#"
   xmlns:rdf="http://www.w3.org/1999/02/22-rdf-syntax-ns#"
   xmlns:svg="http://www.w3.org/2000/svg"
   xmlns="http://www.w3.org/2000/svg"
   xmlns:sodipodi="http://sodipodi.sourceforge.net/DTD/sodipodi-0.dtd"
   xmlns:inkscape="http://www.inkscape.org/namespaces/inkscape"
   version="1.1"
   width="149.47462"
   height="43.175625"
   id="svg3733"
   inkscape:version="0.48.3.1 r9886"
   sodipodi:docname="blackfooterpick3.svg">
  <sodipodi:namedview
     pagecolor="#000000"
     bordercolor="#666666"
     borderopacity="1"
     objecttolerance="10"
     gridtolerance="10"
     guidetolerance="10"
     inkscape:pageopacity="0"
     inkscape:pageshadow="2"
     inkscape:window-width="1103"
     inkscape:window-height="838"
     id="namedview38"
     showgrid="false"
     inkscape:zoom="3.7561077"
     inkscape:cx="22.393281"
     inkscape:cy="21.566371"
     inkscape:window-x="0"
     inkscape:window-y="0"
     inkscape:window-maximized="0"
     inkscape:current-layer="svg3733" />
  <defs
     id="defs3735">
    <clipPath
       id="clipPath576">
      <path
         d="M 0,0 612,0 612,792 0,792 0,0 z"
         id="path578" />
    </clipPath>
    <clipPath
       id="clipPath536">
      <path
         d="M 0,0 612,0 612,792 0,792 0,0 z"
         id="path538" />
    </clipPath>
  </defs>
  <metadata
     id="metadata3738">
    <rdf:RDF>
      <cc:Work
         rdf:about="">
        <dc:format>image/svg+xml</dc:format>
        <dc:type
           rdf:resource="http://purl.org/dc/dcmitype/StillImage" />
        <dc:title />
      </cc:Work>
    </rdf:RDF>
  </metadata>
  <g
     id="g544"
     transform="matrix(1.25,0,0,-1.25,140.03712,43.17562)">
    <path
       inkscape:connector-curvature="0"
       style="fill:#ffffff;fill-opacity:1;fill-rule:nonzero;stroke:none"
       id="path546"
       d="M 0,0 C 4.17,0 7.55,3.38 7.55,7.55 7.55,11.72 4.17,15.1 0,15.1 -4.17,15.1 -7.55,11.72 -7.55,7.55 -7.55,3.38 -4.17,0 0,0" />
  </g>
  <g
     id="g548"
     transform="matrix(1.25,0,0,-1.25,100.03812,33.763995)">
    <path
       inkscape:connector-curvature="0"
       style="fill:#ffffff;fill-opacity:1;fill-rule:nonzero;stroke:none"
       id="path550"
       d="m 0,0 c 0.188,0 0.37,0.014 0.544,0.042 0.174,0.028 0.328,0.082 0.46,0.162 0.133,0.08 0.239,0.194 0.319,0.34 0.08,0.146 0.121,0.338 0.121,0.575 0,0.237 -0.041,0.429 -0.121,0.576 C 1.243,1.841 1.137,1.954 1.004,2.035 0.872,2.115 0.718,2.169 0.544,2.197 0.37,2.225 0.188,2.239 0,2.239 l -1.276,0 L -1.276,0 0,0 z M 0.45,3.515 C 0.917,3.515 1.314,3.447 1.642,3.311 1.97,3.175 2.237,2.995 2.443,2.772 2.648,2.549 2.798,2.294 2.892,2.008 2.987,1.722 3.034,1.426 3.034,1.119 3.034,0.819 2.987,0.525 2.892,0.235 2.798,-0.054 2.648,-0.31 2.443,-0.534 2.237,-0.757 1.97,-0.936 1.642,-1.072 1.314,-1.208 0.917,-1.276 0.45,-1.276 l -1.726,0 0,-2.678 -1.643,0 0,7.469 3.369,0 z m 5.251,-7.469 -1.642,0 0,7.469 1.642,0 0,-7.469 z m 6.235,5.476 c -0.098,0.157 -0.22,0.295 -0.366,0.413 -0.147,0.119 -0.313,0.211 -0.497,0.277 -0.185,0.067 -0.379,0.1 -0.581,0.1 C 10.122,2.312 9.809,2.24 9.551,2.097 9.293,1.954 9.083,1.763 8.923,1.522 8.763,1.281 8.646,1.008 8.573,0.701 8.499,0.394 8.463,0.077 8.463,-0.251 c 0,-0.314 0.036,-0.619 0.11,-0.915 0.073,-0.297 0.19,-0.564 0.35,-0.801 0.16,-0.237 0.37,-0.427 0.628,-0.57 0.258,-0.143 0.571,-0.214 0.941,-0.214 0.502,0 0.895,0.153 1.177,0.46 0.282,0.307 0.455,0.711 0.518,1.214 l 1.59,0 c -0.042,-0.468 -0.15,-0.89 -0.324,-1.266 -0.175,-0.377 -0.405,-0.698 -0.691,-0.963 -0.286,-0.265 -0.621,-0.467 -1.004,-0.606 -0.384,-0.14 -0.806,-0.21 -1.266,-0.21 -0.572,0 -1.086,0.1 -1.543,0.299 -0.457,0.198 -0.842,0.472 -1.156,0.821 -0.314,0.348 -0.554,0.758 -0.722,1.229 -0.167,0.471 -0.251,0.978 -0.251,1.522 0,0.558 0.084,1.076 0.251,1.553 0.168,0.478 0.408,0.895 0.722,1.25 0.314,0.356 0.699,0.635 1.156,0.837 0.457,0.203 0.971,0.304 1.543,0.304 0.412,0 0.8,-0.06 1.167,-0.178 C 12.025,3.396 12.352,3.224 12.642,2.997 12.931,2.77 13.17,2.49 13.358,2.155 13.547,1.82 13.665,1.437 13.714,1.004 l -1.59,0 c -0.028,0.189 -0.091,0.361 -0.188,0.518 m 4.603,1.993 0,-3.097 2.918,3.097 2.05,0 -2.918,-2.95 3.201,-4.519 -2.061,0 -2.249,3.358 -0.941,-0.952 0,-2.406 -1.643,0 0,7.469 1.643,0 z" />
  </g>
  <g
     id="g552"
     transform="matrix(1.25,0,0,-1.25,15.80299,37.42874)">
    <path
       inkscape:connector-curvature="0"
       style="fill:#4f4c4d;fill-opacity:1;fill-rule:nonzero;stroke:none"
       id="path554"
       d="M 0,0 -9.542,-2.917 -12.459,6.625 -2.917,9.542 0,0 z" />
  </g>
  <g
     id="g556"
     transform="matrix(1.25,0,0,-1.25,3.75375,41.30437)">
    <path
       inkscape:connector-curvature="0"
       style="fill:#231f20;fill-opacity:1;fill-rule:nonzero;stroke:none"
       id="path558"
       d="M 0,0 -3.003,9.823 6.819,12.826 9.823,3.003 0,0 z M -2.637,9.628 0.195,0.366 9.456,3.198 6.625,12.459 -2.637,9.628 z" />
  </g>
  <path
     inkscape:connector-curvature="0"
     style="fill:#b2b1b1;fill-opacity:1;fill-rule:nonzero;stroke:none"
     id="path560"
     d="m 18.85612,39.79312 -12.4725,0 0,-12.4725 12.4725,0 0,12.4725 z" />
  <path
     inkscape:connector-curvature="0"
     style="fill:#231f20;fill-opacity:1;fill-rule:nonzero;stroke:none"
     id="path562"
     d="m 19.03987,39.97687 -12.83875,0 0,-12.83875 12.83875,0 0,12.83875 z m -12.4725,-0.3675 12.105,0 0,-12.10625 -12.105,0 0,12.10625 z" />
  <g
     id="g564"
     transform="matrix(1.25,0,0,-1.25,21.16224,42.94599)">
    <path
       inkscape:connector-curvature="0"
       style="fill:#ffffff;fill-opacity:1;fill-rule:nonzero;stroke:none"
       id="path566"
       d="M 0,0 -9.542,2.917 -6.625,12.459 2.917,9.542 0,0 z" />
  </g>
  <g
     id="g568"
     transform="matrix(1.25,0,0,-1.25,21.28399,43.175)">
    <path
       inkscape:connector-curvature="0"
       style="fill:#231f20;fill-opacity:1;fill-rule:nonzero;stroke:none"
       id="path570"
       d="M 0,0 -9.823,3.003 -6.82,12.826 3.003,9.823 0,0 z m -9.456,3.198 9.261,-2.832 2.832,9.262 -9.262,2.831 -2.831,-9.261 z" />
  </g>
  <g
     id="g572"
     transform="matrix(1.25,0,0,-1.25,-397.80013,641.97562)">
    <g
       id="g574"
       clip-path="url(#clipPath576)">
      <g
         id="g580"
         transform="translate(430.2698,498.4805)">
        <path
           inkscape:connector-curvature="0"
           style="fill:#ffffff;fill-opacity:1;fill-rule:nonzero;stroke:none"
           id="path582"
           d="M 0,0 C 4.17,0 7.55,3.38 7.55,7.55 7.55,11.72 4.17,15.1 0,15.1 -4.17,15.1 -7.55,11.72 -7.55,7.55 -7.55,3.38 -4.17,0 0,0" />
      </g>
      <g
         id="g584"
         transform="translate(427.2762,508.707)">
        <path
           inkscape:connector-curvature="0"
           style="fill:#231f20;fill-opacity:1;fill-rule:nonzero;stroke:none"
           id="path586"
           d="M 0,0 C 0.139,0.446 0.347,0.836 0.624,1.17 0.901,1.504 1.25,1.764 1.671,1.95 2.091,2.136 2.574,2.229 3.12,2.229 3.536,2.229 3.932,2.164 4.31,2.034 4.686,1.904 5.018,1.718 5.304,1.475 5.59,1.233 5.818,0.934 5.986,0.578 6.155,0.223 6.24,-0.176 6.24,-0.617 6.24,-1.077 6.166,-1.471 6.019,-1.801 5.872,-2.13 5.677,-2.422 5.434,-2.678 5.191,-2.934 4.916,-3.165 4.608,-3.374 4.301,-3.582 3.991,-3.787 3.679,-3.991 3.367,-4.195 3.064,-4.414 2.769,-4.647 2.474,-4.882 2.214,-5.155 1.989,-5.466 l 4.303,0 0,-1.586 -6.682,0 c 0,0.528 0.076,0.987 0.227,1.378 0.152,0.389 0.358,0.738 0.618,1.046 0.26,0.308 0.566,0.592 0.916,0.851 0.352,0.26 0.722,0.525 1.112,0.793 0.199,0.139 0.412,0.28 0.637,0.423 0.225,0.143 0.431,0.301 0.617,0.474 0.187,0.174 0.343,0.369 0.469,0.586 0.125,0.216 0.188,0.463 0.188,0.741 0,0.441 -0.128,0.786 -0.384,1.033 C 3.755,0.52 3.428,0.643 3.029,0.643 2.76,0.643 2.533,0.581 2.346,0.455 2.16,0.329 2.011,0.165 1.898,-0.039 1.785,-0.243 1.705,-0.468 1.658,-0.715 1.61,-0.962 1.586,-1.207 1.586,-1.449 l -1.768,0 C -0.199,-0.93 -0.139,-0.446 0,0" />
      </g>
      <g
         id="g588"
         transform="translate(430.1547,487.5208)">
        <path
           inkscape:connector-curvature="0"
           style="fill:#231f20;fill-opacity:1;fill-rule:nonzero;stroke:none"
           id="path590"
           d="M 0,0 C 0.243,0.019 0.469,0.072 0.679,0.161 0.889,0.25 1.062,0.378 1.197,0.546 1.332,0.714 1.4,0.938 1.4,1.218 1.4,1.638 1.26,1.96 0.98,2.184 0.7,2.408 0.378,2.52 0.014,2.52 -0.49,2.52 -0.87,2.354 -1.127,2.023 -1.384,1.692 -1.507,1.274 -1.498,0.77 l -1.89,0 c 0.019,0.504 0.11,0.964 0.273,1.379 0.163,0.415 0.392,0.772 0.686,1.071 0.294,0.299 0.646,0.53 1.057,0.693 C -0.961,4.076 -0.504,4.158 0,4.158 0.392,4.158 0.784,4.1 1.176,3.983 1.568,3.866 1.92,3.691 2.233,3.458 2.546,3.225 2.8,2.94 2.996,2.604 3.192,2.268 3.29,1.881 3.29,1.442 3.29,0.966 3.176,0.546 2.947,0.182 2.718,-0.182 2.375,-0.429 1.918,-0.56 l 0,-0.028 C 2.459,-0.709 2.884,-0.971 3.192,-1.372 3.5,-1.773 3.654,-2.254 3.654,-2.814 3.654,-3.327 3.554,-3.785 3.353,-4.186 3.152,-4.587 2.884,-4.923 2.548,-5.194 2.212,-5.465 1.825,-5.67 1.386,-5.81 0.947,-5.95 0.49,-6.02 0.014,-6.02 c -0.551,0 -1.052,0.079 -1.505,0.238 -0.453,0.159 -0.838,0.39 -1.155,0.693 -0.317,0.303 -0.562,0.674 -0.735,1.113 -0.173,0.439 -0.254,0.943 -0.245,1.512 l 1.89,0 c 0.009,-0.261 0.051,-0.511 0.126,-0.749 0.075,-0.238 0.182,-0.443 0.322,-0.616 0.14,-0.173 0.315,-0.31 0.525,-0.413 0.21,-0.103 0.46,-0.154 0.749,-0.154 0.448,0 0.826,0.138 1.134,0.413 0.308,0.275 0.462,0.651 0.462,1.127 0,0.373 -0.072,0.658 -0.217,0.854 -0.145,0.196 -0.329,0.338 -0.553,0.427 -0.224,0.089 -0.469,0.14 -0.735,0.154 -0.266,0.014 -0.52,0.021 -0.763,0.021 l 0,1.4 C -0.471,-0.019 -0.243,-0.019 0,0" />
      </g>
      <g
         id="g592"
         transform="translate(392.3217,503.4014)">
        <path
           inkscape:connector-curvature="0"
           style="fill:#ffffff;fill-opacity:1;fill-rule:nonzero;stroke:none"
           id="path594"
           d="M 0,0 C 0.236,0 0.465,0.038 0.687,0.114 0.908,0.191 1.106,0.317 1.28,0.494 1.453,0.671 1.592,0.901 1.696,1.186 1.8,1.47 1.852,1.817 1.852,2.226 1.852,2.601 1.815,2.939 1.743,3.241 1.67,3.542 1.55,3.801 1.384,4.016 1.217,4.23 0.997,4.395 0.723,4.51 0.449,4.624 0.111,4.681 -0.291,4.681 l -1.165,0 L -1.456,0 0,0 z M 0.114,6.055 C 0.593,6.055 1.039,5.978 1.451,5.826 1.864,5.673 2.221,5.444 2.523,5.139 2.824,4.834 3.06,4.453 3.23,3.995 3.4,3.537 3.485,3 3.485,2.382 3.485,1.841 3.416,1.342 3.277,0.884 3.138,0.427 2.928,0.031 2.648,-0.302 2.367,-0.635 2.016,-0.896 1.597,-1.087 1.177,-1.278 0.683,-1.373 0.114,-1.373 l -3.204,0 0,7.428 3.204,0 z m 7.72,-3.361 c 0.374,0 0.655,0.084 0.842,0.25 0.187,0.167 0.281,0.437 0.281,0.812 0,0.36 -0.094,0.622 -0.281,0.785 C 8.489,4.704 8.208,4.785 7.834,4.785 l -1.79,0 0,-2.091 1.79,0 z m 0.582,3.361 c 0.333,0 0.633,-0.054 0.9,-0.162 C 9.583,5.786 9.812,5.639 10.003,5.451 10.193,5.264 10.339,5.047 10.44,4.801 10.54,4.555 10.59,4.29 10.59,4.005 10.59,3.568 10.498,3.19 10.315,2.871 10.131,2.552 9.831,2.309 9.415,2.143 l 0,-0.021 C 9.616,2.067 9.782,1.982 9.914,1.867 10.046,1.753 10.153,1.618 10.237,1.462 10.32,1.306 10.381,1.134 10.419,0.947 c 0.038,-0.188 0.064,-0.375 0.078,-0.562 0.007,-0.118 0.014,-0.257 0.021,-0.416 0.006,-0.16 0.019,-0.323 0.036,-0.489 0.017,-0.167 0.045,-0.324 0.083,-0.474 0.038,-0.149 0.095,-0.275 0.172,-0.379 l -1.633,0 C 9.085,-1.138 9.03,-0.857 9.009,-0.531 8.988,-0.205 8.957,0.107 8.915,0.406 8.86,0.794 8.742,1.078 8.562,1.259 8.381,1.439 8.087,1.529 7.678,1.529 l -1.634,0 0,-2.902 -1.633,0 0,7.428 4.005,0 z m 7.927,-4.557 -0.936,2.726 -0.021,0 -0.967,-2.726 1.924,0 z m -0.093,4.557 2.777,-7.428 -1.695,0 -0.562,1.654 -2.778,0 -0.582,-1.654 -1.644,0 2.809,7.428 1.675,0 z m 8.416,-7.428 -1.259,5.056 -0.021,0 -1.238,-5.056 -1.654,0 -1.966,7.428 1.633,0 1.176,-5.056 0.021,0 1.29,5.056 1.529,0 1.269,-5.119 0.021,0 1.217,5.119 1.602,0 -1.997,-7.428 -1.623,0 z" />
      </g>
    </g>
  </g>
  <text
     xml:space="preserve"
     style="font-size:16px;font-style:normal;font-weight:normal;line-height:125%;letter-spacing:0px;word-spacing:0px;fill:#000000;fill-opacity:1;stroke:none;font-family:Sans"
     x="26.090839"
     y="39.581478"
     id="text3824"
     sodipodi:linespacing="125%"><tspan
       sodipodi:role="line"
       id="tspan3826"
       x="26.090839"
       y="39.581478"
       style="font-size:7px;fill:#ffffff">CAH</tspan></text>
</svg>
