<?xml version="1.0" encoding="UTF-8" standalone="no"?>
<!-- Created with Inkscape (http://www.inkscape.org/) -->

<svg
   xmlns:dc="http://purl.org/dc/elements/1.1/"
   xmlns:cc="http://creativecommons.org/ns#"
   xmlns:rdf="http://www.w3.org/1999/02/22-rdf-syntax-ns#"
   xmlns:svg="http://www.w3.org/2000/svg"
   xmlns="http://www.w3.org/2000/svg"
   xmlns:sodipodi="http://sodipodi.sourceforge.net/DTD/sodipodi-0.dtd"
   xmlns:inkscape="http://www.inkscape.org/namespaces/inkscape"
   version="1.1"
   width="149.39999"
   height="18"
   id="svg3028"
   inkscape:version="0.48.3.1 r9886"
   sodipodi:docname="footer.svg">
  <sodipodi:namedview
     pagecolor="#ffffff"
     bordercolor="#666666"
     borderopacity="1"
     objecttolerance="10"
     gridtolerance="10"
     guidetolerance="10"
     inkscape:pageopacity="0"
     inkscape:pageshadow="2"
     inkscape:window-width="996"
     inkscape:window-height="853"
     id="namedview20"
     showgrid="false"
     inkscape:zoom="3.9250091"
     inkscape:cx="75.227522"
     inkscape:cy="8.837125"
     inkscape:window-x="212"
     inkscape:window-y="29"
     inkscape:window-maximized="0"
     inkscape:current-layer="svg3028"
     units="in" />
  <defs
     id="defs3030">
    <clipPath
       id="clipPath16">
      <path
         d="M 0,0 612,0 612,792 0,792 0,0 z"
         id="path18"
         inkscape:connector-curvature="0" />
    </clipPath>
  </defs>
  <metadata
     id="metadata3033">
    <rdf:RDF>
      <cc:Work
         rdf:about="">
        <dc:format>image/svg+xml</dc:format>
        <dc:type
           rdf:resource="http://purl.org/dc/dcmitype/StillImage" />
        <dc:title />
      </cc:Work>
    </rdf:RDF>
  </metadata>
  <g
     id="g24"
     transform="matrix(1.25,0,0,-1.25,15.803,12.482705)">
    <path
       inkscape:connector-curvature="0"
       style="fill:#231f20;fill-opacity:1;fill-rule:nonzero;stroke:none"
       id="path26"
       d="M 0,0 -9.542,-2.917 -12.459,6.625 -2.917,9.542 0,0 z" />
  </g>
  <g
     id="g28"
     transform="matrix(1.25,0,0,-1.25,3.75375,16.358205)">
    <path
       inkscape:connector-curvature="0"
       style="fill:#ffffff;fill-opacity:1;fill-rule:nonzero;stroke:none"
       id="path30"
       d="M 0,0 -3.003,9.823 6.819,12.826 9.823,3.003 0,0 z M -2.637,9.628 0.195,0.366 9.456,3.198 6.625,12.459 -2.637,9.628 z" />
  </g>
  <path
     inkscape:connector-curvature="0"
     style="fill:#5a5758;fill-opacity:1;fill-rule:nonzero;stroke:none"
     id="path32"
     d="m 18.85613,14.847705 -12.4725,0 0,-12.4725001 12.4725,0 0,12.4725001 z" />
  <path
     inkscape:connector-curvature="0"
     style="fill:#ffffff;fill-opacity:1;fill-rule:nonzero;stroke:none"
     id="path34"
     d="m 19.03988,15.030205 -12.83875,0 0,-12.8387001 12.83875,0 0,12.8387001 z m -12.4725,-0.3662 12.105,0 0,-12.1063001 -12.105,0 0,12.1063001 z" />
  <g
     id="g36"
     transform="matrix(1.25,0,0,-1.25,21.16225,18.000005)">
    <path
       inkscape:connector-curvature="0"
       style="fill:#c8c7c7;fill-opacity:1;fill-rule:nonzero;stroke:none"
       id="path38"
       d="M 0,0 -9.542,2.917 -6.625,12.459 2.917,9.542 0,0 z" />
  </g>
  <text
     xml:space="preserve"
     style="font-size:16px;font-style:normal;font-weight:normal;line-height:125%;letter-spacing:0px;word-spacing:0px;fill:#000000;fill-opacity:1;stroke:none;font-family:Sans"
     x="26.496754"
     y="14.687866"
     id="text3009"
     sodipodi:linespacing="125%"><tspan
       sodipodi:role="line"
       id="tspan3011"
       x="26.496754"
       y="14.687866"
       style="font-size:6px">Cards Against Humanity</tspan></text>
</svg>
