<?xml version="1.0" encoding="UTF-8" standalone="no"?>
<!-- Created with Inkscape (http://www.inkscape.org/) -->

<svg
   xmlns:dc="http://purl.org/dc/elements/1.1/"
   xmlns:cc="http://creativecommons.org/ns#"
   xmlns:rdf="http://www.w3.org/1999/02/22-rdf-syntax-ns#"
   xmlns:svg="http://www.w3.org/2000/svg"
   xmlns="http://www.w3.org/2000/svg"
   xmlns:sodipodi="http://sodipodi.sourceforge.net/DTD/sodipodi-0.dtd"
   xmlns:inkscape="http://www.inkscape.org/namespaces/inkscape"
   version="1.1"
   width="98.03318"
   height="17.90313"
   id="svg3733"
   inkscape:version="0.48.3.1 r9886"
   sodipodi:docname="blackfooter.svg">
  <sodipodi:namedview
     pagecolor="#ffffff"
     bordercolor="#666666"
     borderopacity="1"
     objecttolerance="10"
     gridtolerance="10"
     guidetolerance="10"
     inkscape:pageopacity="0"
     inkscape:pageshadow="2"
     inkscape:window-width="896"
     inkscape:window-height="885"
     id="namedview26"
     showgrid="false"
     inkscape:zoom="4.0496493"
     inkscape:cx="90.381531"
     inkscape:cy="8.9515648"
     inkscape:window-x="0"
     inkscape:window-y="0"
     inkscape:window-maximized="0"
     inkscape:current-layer="svg3733" />
  <defs
     id="defs3735">
    <clipPath
       id="clipPath576">
      <path
         d="M 0,0 612,0 612,792 0,792 0,0 z"
         id="path578" />
    </clipPath>
    <clipPath
       id="clipPath536">
      <path
         d="M 0,0 612,0 612,792 0,792 0,0 z"
         id="path538" />
    </clipPath>
    <clipPath
       id="clipPath492">
      <path
         d="M 0,0 612,0 612,792 0,792 0,0 z"
         id="path494" />
    </clipPath>
    <clipPath
       id="clipPath310">
      <path
         d="M 0,0 612,0 612,792 0,792 0,0 z"
         id="path312" />
    </clipPath>
  </defs>
  <metadata
     id="metadata3738">
    <rdf:RDF>
      <cc:Work
         rdf:about="">
        <dc:format>image/svg+xml</dc:format>
        <dc:type
           rdf:resource="http://purl.org/dc/dcmitype/StillImage" />
        <dc:title />
      </cc:Work>
    </rdf:RDF>
  </metadata>
  <g
     id="g552"
     transform="matrix(1.25,0,0,-1.25,15.80299,12.15687)">
    <path
       inkscape:connector-curvature="0"
       style="fill:#4f4c4d;fill-opacity:1;fill-rule:nonzero;stroke:none"
       id="path554"
       d="M 0,0 -9.542,-2.917 -12.459,6.625 -2.917,9.542 0,0 z" />
  </g>
  <g
     id="g556"
     transform="matrix(1.25,0,0,-1.25,3.75375,16.0325)">
    <path
       inkscape:connector-curvature="0"
       style="fill:#231f20;fill-opacity:1;fill-rule:nonzero;stroke:none"
       id="path558"
       d="M 0,0 -3.003,9.823 6.819,12.826 9.823,3.003 0,0 z M -2.637,9.628 0.195,0.366 9.456,3.198 6.625,12.459 -2.637,9.628 z" />
  </g>
  <path
     inkscape:connector-curvature="0"
     style="fill:#b2b1b1;fill-opacity:1;fill-rule:nonzero;stroke:none"
     id="path560"
     d="m 18.85612,14.52125 -12.4725,0 0,-12.4725 12.4725,0 0,12.4725 z" />
  <path
     inkscape:connector-curvature="0"
     style="fill:#231f20;fill-opacity:1;fill-rule:nonzero;stroke:none"
     id="path562"
     d="m 19.03987,14.705 -12.83875,0 0,-12.83875 12.83875,0 0,12.83875 z m -12.4725,-0.3675 12.105,0 0,-12.10625 -12.105,0 0,12.10625 z" />
  <g
     id="g564"
     transform="matrix(1.25,0,0,-1.25,21.16224,17.67412)">
    <path
       inkscape:connector-curvature="0"
       style="fill:#ffffff;fill-opacity:1;fill-rule:nonzero;stroke:none"
       id="path566"
       d="M 0,0 -9.542,2.917 -6.625,12.459 2.917,9.542 0,0 z" />
  </g>
  <g
     id="g568"
     transform="matrix(1.25,0,0,-1.25,21.28399,17.90313)">
    <path
       inkscape:connector-curvature="0"
       style="fill:#231f20;fill-opacity:1;fill-rule:nonzero;stroke:none"
       id="path570"
       d="M 0,0 -9.823,3.003 -6.82,12.826 3.003,9.823 0,0 z m -9.456,3.198 9.261,-2.832 2.832,9.262 -9.262,2.831 -2.831,-9.261 z" />
  </g>
  <text
     xml:space="preserve"
     style="font-size:16px;font-style:normal;font-weight:normal;line-height:125%;letter-spacing:0px;word-spacing:0px;fill:#ffffff;fill-opacity:1;stroke:none;font-family:Sans"
     x="24.446562"
     y="15.186845"
     id="text3015"
     sodipodi:linespacing="125%"><tspan
       sodipodi:role="line"
       id="tspan3017"
       x="24.446562"
       y="15.186845"
       style="font-size:7px;fill:#ffffff">Cards Against Sanity</tspan></text>
</svg>
