<?xml version="1.0" encoding="UTF-8" standalone="no"?>
<!-- Created with Inkscape (http://www.inkscape.org/) -->

<svg
   xmlns:dc="http://purl.org/dc/elements/1.1/"
   xmlns:cc="http://creativecommons.org/ns#"
   xmlns:rdf="http://www.w3.org/1999/02/22-rdf-syntax-ns#"
   xmlns:svg="http://www.w3.org/2000/svg"
   xmlns="http://www.w3.org/2000/svg"
   xmlns:sodipodi="http://sodipodi.sourceforge.net/DTD/sodipodi-0.dtd"
   xmlns:inkscape="http://www.inkscape.org/namespaces/inkscape"
   width="179"
   height="179"
   id="svg3733"
   version="1.1"
   inkscape:version="0.48.3 r9882"
   sodipodi:docname="black1blank.svg">
  <defs
     id="defs3735">
    <clipPath
       clipPathUnits="userSpaceOnUse"
       id="clipPath576">
      <path
         inkscape:connector-curvature="0"
         d="M 0,0 612,0 612,792 0,792 0,0 z"
         id="path578" />
    </clipPath>
    <clipPath
       clipPathUnits="userSpaceOnUse"
       id="clipPath536">
      <path
         inkscape:connector-curvature="0"
         d="M 0,0 612,0 612,792 0,792 0,0 z"
         id="path538" />
    </clipPath>
    <clipPath
       clipPathUnits="userSpaceOnUse"
       id="clipPath492">
      <path
         inkscape:connector-curvature="0"
         d="M 0,0 612,0 612,792 0,792 0,0 z"
         id="path494" />
    </clipPath>
  </defs>
  <sodipodi:namedview
     id="base"
     pagecolor="#ffffff"
     bordercolor="#666666"
     borderopacity="1.0"
     inkscape:pageopacity="0.0"
     inkscape:pageshadow="2"
     inkscape:zoom="1.979899"
     inkscape:cx="208.27231"
     inkscape:cy="37.034719"
     inkscape:document-units="px"
     inkscape:current-layer="layer1"
     showgrid="false"
     fit-margin-top="0"
     fit-margin-left="0"
     fit-margin-right="0"
     fit-margin-bottom="0"
     inkscape:window-width="1016"
     inkscape:window-height="867"
     inkscape:window-x="207"
     inkscape:window-y="121"
     inkscape:window-maximized="0" />
  <metadata
     id="metadata3738">
    <rdf:RDF>
      <cc:Work
         rdf:about="">
        <dc:format>image/svg+xml</dc:format>
        <dc:type
           rdf:resource="http://purl.org/dc/dcmitype/StillImage" />
        <dc:title></dc:title>
      </cc:Work>
    </rdf:RDF>
  </metadata>
  <g
     inkscape:label="Layer 1"
     inkscape:groupmode="layer"
     id="layer1"
     transform="translate(-36.21875,-177.15625)">
    <path
       inkscape:connector-curvature="0"
       d="m 36.339286,356.0229 178.750004,0 0,-178.75 -178.750004,0 0,178.75 z"
       style="fill:#231f20;fill-opacity:1;stroke:#ffffff;stroke-width:0.25;stroke-linecap:butt;stroke-linejoin:miter;stroke-miterlimit:4;stroke-opacity:1;stroke-dasharray:none"
       id="path252" />
    <g
       transform="matrix(1.25,0,0,-1.25,-346.28571,940.6479)"
       id="g532">
      <g
         id="g534"
         clip-path="url(#clipPath536)">
        <g
           id="g540"
           transform="translate(342.5561,485.3327)">
          <path
             inkscape:connector-curvature="0"
             d="m 0,0 c -0.049,0.078 -0.109,0.146 -0.182,0.205 -0.073,0.059 -0.155,0.105 -0.247,0.138 -0.092,0.033 -0.188,0.05 -0.289,0.05 -0.183,0 -0.339,-0.036 -0.468,-0.107 C -1.314,0.215 -1.418,0.12 -1.498,0 c -0.079,-0.12 -0.137,-0.256 -0.174,-0.408 -0.036,-0.153 -0.054,-0.311 -0.054,-0.473 0,-0.156 0.018,-0.308 0.054,-0.455 0.037,-0.148 0.095,-0.28 0.174,-0.398 0.08,-0.118 0.184,-0.213 0.312,-0.284 0.129,-0.071 0.285,-0.106 0.468,-0.106 0.25,0 0.445,0.076 0.585,0.229 0.141,0.152 0.227,0.353 0.258,0.603 l 0.79,0 C 0.894,-1.525 0.841,-1.734 0.754,-1.921 0.667,-2.109 0.553,-2.268 0.411,-2.4 0.269,-2.532 0.102,-2.632 -0.088,-2.701 c -0.191,-0.07 -0.401,-0.104 -0.63,-0.104 -0.284,0 -0.54,0.049 -0.767,0.148 -0.227,0.099 -0.418,0.235 -0.574,0.408 -0.156,0.173 -0.276,0.377 -0.359,0.611 -0.083,0.234 -0.125,0.486 -0.125,0.757 0,0.277 0.042,0.534 0.125,0.772 0.083,0.237 0.203,0.444 0.359,0.621 0.156,0.177 0.347,0.316 0.574,0.416 0.227,0.101 0.483,0.151 0.767,0.151 0.205,0 0.398,-0.03 0.58,-0.088 C 0.044,0.932 0.207,0.846 0.351,0.733 0.495,0.621 0.614,0.481 0.707,0.315 0.801,0.148 0.86,-0.043 0.884,-0.257 l -0.79,0 C 0.08,-0.164 0.048,-0.078 0,0 m 3.266,-1.287 -0.468,1.362 -0.011,0 -0.483,-1.362 0.962,0 z m -0.047,2.278 1.388,-3.713 -0.847,0 -0.281,0.827 -1.389,0 -0.291,-0.827 -0.821,0 1.404,3.713 0.837,0 z m 2.631,0 0,-1.425 1.503,0 0,1.425 0.816,0 0,-3.713 -0.816,0 0,1.601 -1.503,0 0,-1.601 -0.816,0 0,3.713 0.816,0 z"
             style="fill:#ffffff;fill-opacity:1;fill-rule:nonzero;stroke:none"
             id="path542" />
        </g>
        <g
           id="g544"
           transform="translate(430.2698,479.04)">
          <path
             inkscape:connector-curvature="0"
             d="M 0,0 C 4.17,0 7.55,3.38 7.55,7.55 7.55,11.72 4.17,15.1 0,15.1 -4.17,15.1 -7.55,11.72 -7.55,7.55 -7.55,3.38 -4.17,0 0,0"
             style="fill:#ffffff;fill-opacity:1;fill-rule:nonzero;stroke:none"
             id="path546" />
        </g>
        <g
           id="g548"
           transform="translate(398.2706,486.5693)">
          <path
             inkscape:connector-curvature="0"
             d="m 0,0 c 0.188,0 0.37,0.014 0.544,0.042 0.174,0.028 0.328,0.082 0.46,0.162 0.133,0.08 0.239,0.194 0.319,0.34 0.08,0.146 0.121,0.338 0.121,0.575 0,0.237 -0.041,0.429 -0.121,0.576 C 1.243,1.841 1.137,1.954 1.004,2.035 0.872,2.115 0.718,2.169 0.544,2.197 0.37,2.225 0.188,2.239 0,2.239 l -1.276,0 L -1.276,0 0,0 z M 0.45,3.515 C 0.917,3.515 1.314,3.447 1.642,3.311 1.97,3.175 2.237,2.995 2.443,2.772 2.648,2.549 2.798,2.294 2.892,2.008 2.987,1.722 3.034,1.426 3.034,1.119 3.034,0.819 2.987,0.525 2.892,0.235 2.798,-0.054 2.648,-0.31 2.443,-0.534 2.237,-0.757 1.97,-0.936 1.642,-1.072 1.314,-1.208 0.917,-1.276 0.45,-1.276 l -1.726,0 0,-2.678 -1.643,0 0,7.469 3.369,0 z m 5.251,-7.469 -1.642,0 0,7.469 1.642,0 0,-7.469 z m 6.235,5.476 c -0.098,0.157 -0.22,0.295 -0.366,0.413 -0.147,0.119 -0.313,0.211 -0.497,0.277 -0.185,0.067 -0.379,0.1 -0.581,0.1 C 10.122,2.312 9.809,2.24 9.551,2.097 9.293,1.954 9.083,1.763 8.923,1.522 8.763,1.281 8.646,1.008 8.573,0.701 8.499,0.394 8.463,0.077 8.463,-0.251 c 0,-0.314 0.036,-0.619 0.11,-0.915 0.073,-0.297 0.19,-0.564 0.35,-0.801 0.16,-0.237 0.37,-0.427 0.628,-0.57 0.258,-0.143 0.571,-0.214 0.941,-0.214 0.502,0 0.895,0.153 1.177,0.46 0.282,0.307 0.455,0.711 0.518,1.214 l 1.59,0 c -0.042,-0.468 -0.15,-0.89 -0.324,-1.266 -0.175,-0.377 -0.405,-0.698 -0.691,-0.963 -0.286,-0.265 -0.621,-0.467 -1.004,-0.606 -0.384,-0.14 -0.806,-0.21 -1.266,-0.21 -0.572,0 -1.086,0.1 -1.543,0.299 -0.457,0.198 -0.842,0.472 -1.156,0.821 -0.314,0.348 -0.554,0.758 -0.722,1.229 -0.167,0.471 -0.251,0.978 -0.251,1.522 0,0.558 0.084,1.076 0.251,1.553 0.168,0.478 0.408,0.895 0.722,1.25 0.314,0.356 0.699,0.635 1.156,0.837 0.457,0.203 0.971,0.304 1.543,0.304 0.412,0 0.8,-0.06 1.167,-0.178 C 12.025,3.396 12.352,3.224 12.642,2.997 12.931,2.77 13.17,2.49 13.358,2.155 13.547,1.82 13.665,1.437 13.714,1.004 l -1.59,0 c -0.028,0.189 -0.091,0.361 -0.188,0.518 m 4.603,1.993 0,-3.097 2.918,3.097 2.05,0 -2.918,-2.95 3.201,-4.519 -2.061,0 -2.249,3.358 -0.941,-0.952 0,-2.406 -1.643,0 0,7.469 1.643,0 z"
             style="fill:#ffffff;fill-opacity:1;fill-rule:nonzero;stroke:none"
             id="path550" />
        </g>
      </g>
    </g>
    <g
       id="g552"
       transform="matrix(1.25,0,0,-1.25,67.317406,336.10102)">
      <path
         inkscape:connector-curvature="0"
         d="M 0,0 -9.542,-2.917 -12.459,6.625 -2.917,9.542 0,0 z"
         style="fill:#4f4c4d;fill-opacity:1;fill-rule:nonzero;stroke:none"
         id="path554" />
    </g>
    <g
       id="g556"
       transform="matrix(1.25,0,0,-1.25,55.268166,339.97665)">
      <path
         inkscape:connector-curvature="0"
         d="M 0,0 -3.003,9.823 6.819,12.826 9.823,3.003 0,0 z M -2.637,9.628 0.195,0.366 9.456,3.198 6.625,12.459 -2.637,9.628 z"
         style="fill:#231f20;fill-opacity:1;fill-rule:nonzero;stroke:none"
         id="path558" />
    </g>
    <path
       inkscape:connector-curvature="0"
       d="m 70.370536,338.4654 -12.4725,0 0,-12.4725 12.4725,0 0,12.4725 z"
       style="fill:#b2b1b1;fill-opacity:1;fill-rule:nonzero;stroke:none"
       id="path560" />
    <path
       inkscape:connector-curvature="0"
       d="m 70.554286,338.64915 -12.83875,0 0,-12.83875 12.83875,0 0,12.83875 z m -12.4725,-0.3675 12.105,0 0,-12.10625 -12.105,0 0,12.10625 z"
       style="fill:#231f20;fill-opacity:1;fill-rule:nonzero;stroke:none"
       id="path562" />
    <g
       id="g564"
       transform="matrix(1.25,0,0,-1.25,72.676656,341.61827)">
      <path
         inkscape:connector-curvature="0"
         d="M 0,0 -9.542,2.917 -6.625,12.459 2.917,9.542 0,0 z"
         style="fill:#ffffff;fill-opacity:1;fill-rule:nonzero;stroke:none"
         id="path566" />
    </g>
    <g
       id="g568"
       transform="matrix(1.25,0,0,-1.25,72.798406,341.84728)">
      <path
         inkscape:connector-curvature="0"
         d="M 0,0 -9.823,3.003 -6.82,12.826 3.003,9.823 0,0 z m -9.456,3.198 9.261,-2.832 2.832,9.262 -9.262,2.831 -2.831,-9.261 z"
         style="fill:#231f20;fill-opacity:1;fill-rule:nonzero;stroke:none"
         id="path570" />
    </g>
    <g
       transform="matrix(1.25,0,0,-1.25,11.613821,940.67547)"
       id="g488">
      <g
         id="g490"
         clip-path="url(#clipPath492)">
        <g
           id="g496"
           transform="translate(56.1561,485.3327)">
          <path
             inkscape:connector-curvature="0"
             d="m 0,0 c -0.049,0.078 -0.109,0.146 -0.182,0.205 -0.073,0.059 -0.155,0.105 -0.247,0.138 -0.092,0.033 -0.188,0.05 -0.289,0.05 -0.183,0 -0.339,-0.036 -0.468,-0.107 C -1.314,0.215 -1.418,0.12 -1.498,0 c -0.079,-0.12 -0.137,-0.256 -0.174,-0.408 -0.036,-0.153 -0.054,-0.311 -0.054,-0.473 0,-0.156 0.018,-0.308 0.054,-0.455 0.037,-0.148 0.095,-0.28 0.174,-0.398 0.08,-0.118 0.184,-0.213 0.312,-0.284 0.129,-0.071 0.285,-0.106 0.468,-0.106 0.25,0 0.445,0.076 0.585,0.229 0.141,0.152 0.227,0.353 0.258,0.603 l 0.79,0 C 0.894,-1.525 0.841,-1.734 0.754,-1.921 0.667,-2.109 0.553,-2.268 0.411,-2.4 0.269,-2.532 0.102,-2.632 -0.088,-2.701 c -0.191,-0.07 -0.401,-0.104 -0.63,-0.104 -0.284,0 -0.54,0.049 -0.767,0.148 -0.227,0.099 -0.418,0.235 -0.574,0.408 -0.156,0.173 -0.276,0.377 -0.359,0.611 -0.083,0.234 -0.125,0.486 -0.125,0.757 0,0.277 0.042,0.534 0.125,0.772 0.083,0.237 0.203,0.444 0.359,0.621 0.156,0.177 0.347,0.316 0.574,0.416 0.227,0.101 0.483,0.151 0.767,0.151 0.205,0 0.398,-0.03 0.58,-0.088 C 0.044,0.932 0.207,0.846 0.351,0.733 0.495,0.621 0.614,0.481 0.707,0.315 0.801,0.148 0.86,-0.043 0.884,-0.257 l -0.79,0 C 0.08,-0.164 0.049,-0.078 0,0 m 3.266,-1.287 -0.468,1.362 -0.011,0 -0.483,-1.362 0.962,0 z m -0.047,2.278 1.388,-3.713 -0.847,0 -0.281,0.827 -1.389,0 -0.291,-0.827 -0.821,0 1.404,3.713 0.837,0 z m 2.631,0 0,-1.425 1.503,0 0,1.425 0.816,0 0,-3.713 -0.816,0 0,1.601 -1.503,0 0,-1.601 -0.816,0 0,3.713 0.816,0 z"
             style="fill:#ffffff;fill-opacity:1;fill-rule:nonzero;stroke:none"
             id="path498" />
        </g>
        <g
           id="g500"
           transform="translate(143.8698,479.04)">
          <path
             inkscape:connector-curvature="0"
             d="M 0,0 C 4.17,0 7.55,3.38 7.55,7.55 7.55,11.72 4.17,15.1 0,15.1 -4.17,15.1 -7.55,11.72 -7.55,7.55 -7.55,3.38 -4.17,0 0,0"
             style="fill:#ffffff;fill-opacity:1;fill-rule:nonzero;stroke:none"
             id="path502" />
        </g>
        <g
           id="g504"
           transform="translate(111.8706,486.5693)">
          <path
             inkscape:connector-curvature="0"
             d="m 0,0 c 0.188,0 0.37,0.014 0.544,0.042 0.174,0.028 0.328,0.082 0.46,0.162 0.133,0.08 0.239,0.194 0.319,0.34 0.08,0.146 0.121,0.338 0.121,0.575 0,0.237 -0.041,0.429 -0.121,0.576 C 1.243,1.841 1.137,1.954 1.004,2.035 0.872,2.115 0.718,2.169 0.544,2.197 0.37,2.225 0.188,2.239 0,2.239 l -1.276,0 L -1.276,0 0,0 z M 0.45,3.515 C 0.917,3.515 1.314,3.447 1.642,3.311 1.97,3.175 2.237,2.995 2.443,2.772 2.648,2.549 2.798,2.294 2.892,2.008 2.987,1.722 3.034,1.426 3.034,1.119 3.034,0.819 2.987,0.525 2.892,0.235 2.798,-0.054 2.648,-0.31 2.443,-0.534 2.237,-0.757 1.97,-0.936 1.642,-1.072 1.314,-1.208 0.917,-1.276 0.45,-1.276 l -1.726,0 0,-2.678 -1.643,0 0,7.469 3.369,0 z m 5.251,-7.469 -1.642,0 0,7.469 1.642,0 0,-7.469 z m 6.235,5.476 c -0.098,0.157 -0.22,0.295 -0.366,0.413 -0.147,0.119 -0.313,0.211 -0.497,0.277 -0.185,0.067 -0.379,0.1 -0.581,0.1 C 10.122,2.312 9.809,2.24 9.551,2.097 9.293,1.954 9.083,1.763 8.923,1.522 8.763,1.281 8.646,1.008 8.573,0.701 8.499,0.394 8.463,0.077 8.463,-0.251 c 0,-0.314 0.036,-0.619 0.11,-0.915 0.073,-0.297 0.19,-0.564 0.35,-0.801 0.16,-0.237 0.37,-0.427 0.628,-0.57 0.258,-0.143 0.571,-0.214 0.941,-0.214 0.502,0 0.895,0.153 1.177,0.46 0.282,0.307 0.455,0.711 0.518,1.214 l 1.59,0 c -0.042,-0.468 -0.15,-0.89 -0.324,-1.266 -0.175,-0.377 -0.405,-0.698 -0.691,-0.963 -0.286,-0.265 -0.621,-0.467 -1.004,-0.606 -0.384,-0.14 -0.806,-0.21 -1.266,-0.21 -0.572,0 -1.086,0.1 -1.543,0.299 -0.457,0.198 -0.842,0.472 -1.156,0.821 -0.314,0.348 -0.554,0.758 -0.722,1.229 -0.167,0.471 -0.251,0.978 -0.251,1.522 0,0.558 0.084,1.076 0.251,1.553 0.168,0.478 0.408,0.895 0.722,1.25 0.314,0.356 0.699,0.635 1.156,0.837 0.457,0.203 0.971,0.304 1.543,0.304 0.412,0 0.8,-0.06 1.167,-0.178 C 12.025,3.396 12.352,3.224 12.642,2.997 12.931,2.77 13.17,2.49 13.358,2.155 13.547,1.82 13.665,1.437 13.714,1.004 l -1.59,0 c -0.028,0.189 -0.091,0.361 -0.188,0.518 m 4.603,1.993 0,-3.097 2.918,3.097 2.05,0 -2.918,-2.95 3.201,-4.519 -2.061,0 -2.249,3.358 -0.941,-0.952 0,-2.406 -1.643,0 0,7.469 1.643,0 z"
             style="fill:#ffffff;fill-opacity:1;fill-rule:nonzero;stroke:none"
             id="path506" />
        </g>
        <g
           id="g508"
           transform="translate(140.8762,489.267)">
          <path
             inkscape:connector-curvature="0"
             d="M 0,0 C 0.139,0.446 0.347,0.836 0.624,1.17 0.901,1.504 1.25,1.764 1.671,1.95 2.091,2.136 2.574,2.229 3.12,2.229 3.536,2.229 3.932,2.164 4.309,2.034 4.686,1.904 5.018,1.718 5.304,1.475 5.59,1.233 5.817,0.934 5.986,0.578 6.156,0.223 6.24,-0.176 6.24,-0.617 6.24,-1.077 6.166,-1.471 6.019,-1.801 5.872,-2.13 5.677,-2.422 5.434,-2.678 5.191,-2.934 4.916,-3.165 4.608,-3.374 4.301,-3.582 3.991,-3.787 3.679,-3.991 3.367,-4.195 3.064,-4.414 2.769,-4.647 2.474,-4.882 2.214,-5.155 1.989,-5.466 l 4.303,0 0,-1.586 -6.682,0 c 0,0.528 0.076,0.987 0.227,1.378 0.152,0.389 0.358,0.738 0.618,1.046 0.26,0.308 0.565,0.592 0.916,0.851 0.351,0.26 0.722,0.525 1.112,0.793 0.199,0.139 0.412,0.28 0.637,0.423 0.225,0.143 0.431,0.301 0.618,0.474 0.186,0.174 0.342,0.369 0.467,0.586 0.126,0.216 0.189,0.463 0.189,0.741 0,0.441 -0.128,0.786 -0.384,1.033 C 3.755,0.52 3.428,0.643 3.029,0.643 2.76,0.643 2.533,0.581 2.346,0.455 2.16,0.329 2.011,0.165 1.898,-0.039 1.785,-0.243 1.705,-0.468 1.658,-0.715 1.61,-0.962 1.586,-1.207 1.586,-1.449 l -1.768,0 C -0.199,-0.93 -0.139,-0.446 0,0"
             style="fill:#231f20;fill-opacity:1;fill-rule:nonzero;stroke:none"
             id="path510" />
        </g>
      </g>
    </g>
  </g>
</svg>
