<?xml version="1.0" encoding="UTF-8" standalone="no"?>
<!-- Created with Inkscape (http://www.inkscape.org/) -->

<svg
   xmlns:dc="http://purl.org/dc/elements/1.1/"
   xmlns:cc="http://creativecommons.org/ns#"
   xmlns:rdf="http://www.w3.org/1999/02/22-rdf-syntax-ns#"
   xmlns:svg="http://www.w3.org/2000/svg"
   xmlns="http://www.w3.org/2000/svg"
   xmlns:sodipodi="http://sodipodi.sourceforge.net/DTD/sodipodi-0.dtd"
   xmlns:inkscape="http://www.inkscape.org/namespaces/inkscape"
   version="1.1"
   width="149.47462"
   height="43.175625"
   id="svg3733"
   inkscape:version="0.48.3.1 r9886"
   sodipodi:docname="blackfooterpick3.svg">
  <sodipodi:namedview
     pagecolor="#000000"
     bordercolor="#666666"
     borderopacity="1"
     objecttolerance="10"
     gridtolerance="10"
     guidetolerance="10"
     inkscape:pageopacity="0"
     inkscape:pageshadow="2"
     inkscape:window-width="1103"
     inkscape:window-height="838"
     id="namedview38"
     showgrid="false"
     inkscape:zoom="2.6559692"
     inkscape:cx="62.656815"
     inkscape:cy="11.972861"
     inkscape:window-x="278"
     inkscape:window-y="136"
     inkscape:window-maximized="0"
     inkscape:current-layer="svg3733"
     units="in" />
  <defs
     id="defs3735">
    <clipPath
       id="clipPath576">
      <path
         d="M 0,0 612,0 612,792 0,792 0,0 z"
         id="path578"
         inkscape:connector-curvature="0" />
    </clipPath>
    <clipPath
       id="clipPath536">
      <path
         d="M 0,0 612,0 612,792 0,792 0,0 z"
         id="path538"
         inkscape:connector-curvature="0" />
    </clipPath>
  </defs>
  <metadata
     id="metadata3738">
    <rdf:RDF>
      <cc:Work
         rdf:about="">
        <dc:format>image/svg+xml</dc:format>
        <dc:type
           rdf:resource="http://purl.org/dc/dcmitype/StillImage" />
        <dc:title />
      </cc:Work>
    </rdf:RDF>
  </metadata>
  <g
     id="g544"
     transform="matrix(1.25,0,0,-1.25,140.03712,43.175673)">
    <path
       inkscape:connector-curvature="0"
       style="fill:#ffffff;fill-opacity:1;fill-rule:nonzero;stroke:none"
       id="path546"
       d="M 0,0 C 4.17,0 7.55,3.38 7.55,7.55 7.55,11.72 4.17,15.1 0,15.1 -4.17,15.1 -7.55,11.72 -7.55,7.55 -7.55,3.38 -4.17,0 0,0" />
  </g>
  <g
     id="g548"
     transform="matrix(1.25,0,0,-1.25,100.03812,33.764073)">
    <path
       inkscape:connector-curvature="0"
       style="fill:#ffffff;fill-opacity:1;fill-rule:nonzero;stroke:none"
       id="path550"
       d="m 0,0 c 0.188,0 0.37,0.014 0.544,0.042 0.174,0.028 0.328,0.082 0.46,0.162 0.133,0.08 0.239,0.194 0.319,0.34 0.08,0.146 0.121,0.338 0.121,0.575 0,0.237 -0.041,0.429 -0.121,0.576 C 1.243,1.841 1.137,1.954 1.004,2.035 0.872,2.115 0.718,2.169 0.544,2.197 0.37,2.225 0.188,2.239 0,2.239 l -1.276,0 L -1.276,0 0,0 z M 0.45,3.515 C 0.917,3.515 1.314,3.447 1.642,3.311 1.97,3.175 2.237,2.995 2.443,2.772 2.648,2.549 2.798,2.294 2.892,2.008 2.987,1.722 3.034,1.426 3.034,1.119 3.034,0.819 2.987,0.525 2.892,0.235 2.798,-0.054 2.648,-0.31 2.443,-0.534 2.237,-0.757 1.97,-0.936 1.642,-1.072 1.314,-1.208 0.917,-1.276 0.45,-1.276 l -1.726,0 0,-2.678 -1.643,0 0,7.469 3.369,0 z m 5.251,-7.469 -1.642,0 0,7.469 1.642,0 0,-7.469 z m 6.235,5.476 c -0.098,0.157 -0.22,0.295 -0.366,0.413 -0.147,0.119 -0.313,0.211 -0.497,0.277 -0.185,0.067 -0.379,0.1 -0.581,0.1 C 10.122,2.312 9.809,2.24 9.551,2.097 9.293,1.954 9.083,1.763 8.923,1.522 8.763,1.281 8.646,1.008 8.573,0.701 8.499,0.394 8.463,0.077 8.463,-0.251 c 0,-0.314 0.036,-0.619 0.11,-0.915 0.073,-0.297 0.19,-0.564 0.35,-0.801 0.16,-0.237 0.37,-0.427 0.628,-0.57 0.258,-0.143 0.571,-0.214 0.941,-0.214 0.502,0 0.895,0.153 1.177,0.46 0.282,0.307 0.455,0.711 0.518,1.214 l 1.59,0 c -0.042,-0.468 -0.15,-0.89 -0.324,-1.266 -0.175,-0.377 -0.405,-0.698 -0.691,-0.963 -0.286,-0.265 -0.621,-0.467 -1.004,-0.606 -0.384,-0.14 -0.806,-0.21 -1.266,-0.21 -0.572,0 -1.086,0.1 -1.543,0.299 -0.457,0.198 -0.842,0.472 -1.156,0.821 -0.314,0.348 -0.554,0.758 -0.722,1.229 -0.167,0.471 -0.251,0.978 -0.251,1.522 0,0.558 0.084,1.076 0.251,1.553 0.168,0.478 0.408,0.895 0.722,1.25 0.314,0.356 0.699,0.635 1.156,0.837 0.457,0.203 0.971,0.304 1.543,0.304 0.412,0 0.8,-0.06 1.167,-0.178 C 12.025,3.396 12.352,3.224 12.642,2.997 12.931,2.77 13.17,2.49 13.358,2.155 13.547,1.82 13.665,1.437 13.714,1.004 l -1.59,0 c -0.028,0.189 -0.091,0.361 -0.188,0.518 m 4.603,1.993 0,-3.097 2.918,3.097 2.05,0 -2.918,-2.95 3.201,-4.519 -2.061,0 -2.249,3.358 -0.941,-0.952 0,-2.406 -1.643,0 0,7.469 1.643,0 z" />
  </g>
  <g
     id="g572"
     transform="matrix(1.25,0,0,-1.25,-397.80013,641.97567)">
    <g
       id="g574"
       clip-path="url(#clipPath576)">
      <g
         id="g580"
         transform="translate(430.2698,498.4805)">
        <path
           inkscape:connector-curvature="0"
           style="fill:#ffffff;fill-opacity:1;fill-rule:nonzero;stroke:none"
           id="path582"
           d="M 0,0 C 4.17,0 7.55,3.38 7.55,7.55 7.55,11.72 4.17,15.1 0,15.1 -4.17,15.1 -7.55,11.72 -7.55,7.55 -7.55,3.38 -4.17,0 0,0" />
      </g>
      <g
         id="g584"
         transform="translate(427.2762,508.707)">
        <path
           inkscape:connector-curvature="0"
           style="fill:#231f20;fill-opacity:1;fill-rule:nonzero;stroke:none"
           id="path586"
           d="M 0,0 C 0.139,0.446 0.347,0.836 0.624,1.17 0.901,1.504 1.25,1.764 1.671,1.95 2.091,2.136 2.574,2.229 3.12,2.229 3.536,2.229 3.932,2.164 4.31,2.034 4.686,1.904 5.018,1.718 5.304,1.475 5.59,1.233 5.818,0.934 5.986,0.578 6.155,0.223 6.24,-0.176 6.24,-0.617 6.24,-1.077 6.166,-1.471 6.019,-1.801 5.872,-2.13 5.677,-2.422 5.434,-2.678 5.191,-2.934 4.916,-3.165 4.608,-3.374 4.301,-3.582 3.991,-3.787 3.679,-3.991 3.367,-4.195 3.064,-4.414 2.769,-4.647 2.474,-4.882 2.214,-5.155 1.989,-5.466 l 4.303,0 0,-1.586 -6.682,0 c 0,0.528 0.076,0.987 0.227,1.378 0.152,0.389 0.358,0.738 0.618,1.046 0.26,0.308 0.566,0.592 0.916,0.851 0.352,0.26 0.722,0.525 1.112,0.793 0.199,0.139 0.412,0.28 0.637,0.423 0.225,0.143 0.431,0.301 0.617,0.474 0.187,0.174 0.343,0.369 0.469,0.586 0.125,0.216 0.188,0.463 0.188,0.741 0,0.441 -0.128,0.786 -0.384,1.033 C 3.755,0.52 3.428,0.643 3.029,0.643 2.76,0.643 2.533,0.581 2.346,0.455 2.16,0.329 2.011,0.165 1.898,-0.039 1.785,-0.243 1.705,-0.468 1.658,-0.715 1.61,-0.962 1.586,-1.207 1.586,-1.449 l -1.768,0 C -0.199,-0.93 -0.139,-0.446 0,0" />
      </g>
      <g
         id="g588"
         transform="translate(430.1547,487.5208)">
        <path
           inkscape:connector-curvature="0"
           style="fill:#231f20;fill-opacity:1;fill-rule:nonzero;stroke:none"
           id="path590"
           d="M 0,0 C 0.243,0.019 0.469,0.072 0.679,0.161 0.889,0.25 1.062,0.378 1.197,0.546 1.332,0.714 1.4,0.938 1.4,1.218 1.4,1.638 1.26,1.96 0.98,2.184 0.7,2.408 0.378,2.52 0.014,2.52 -0.49,2.52 -0.87,2.354 -1.127,2.023 -1.384,1.692 -1.507,1.274 -1.498,0.77 l -1.89,0 c 0.019,0.504 0.11,0.964 0.273,1.379 0.163,0.415 0.392,0.772 0.686,1.071 0.294,0.299 0.646,0.53 1.057,0.693 C -0.961,4.076 -0.504,4.158 0,4.158 0.392,4.158 0.784,4.1 1.176,3.983 1.568,3.866 1.92,3.691 2.233,3.458 2.546,3.225 2.8,2.94 2.996,2.604 3.192,2.268 3.29,1.881 3.29,1.442 3.29,0.966 3.176,0.546 2.947,0.182 2.718,-0.182 2.375,-0.429 1.918,-0.56 l 0,-0.028 C 2.459,-0.709 2.884,-0.971 3.192,-1.372 3.5,-1.773 3.654,-2.254 3.654,-2.814 3.654,-3.327 3.554,-3.785 3.353,-4.186 3.152,-4.587 2.884,-4.923 2.548,-5.194 2.212,-5.465 1.825,-5.67 1.386,-5.81 0.947,-5.95 0.49,-6.02 0.014,-6.02 c -0.551,0 -1.052,0.079 -1.505,0.238 -0.453,0.159 -0.838,0.39 -1.155,0.693 -0.317,0.303 -0.562,0.674 -0.735,1.113 -0.173,0.439 -0.254,0.943 -0.245,1.512 l 1.89,0 c 0.009,-0.261 0.051,-0.511 0.126,-0.749 0.075,-0.238 0.182,-0.443 0.322,-0.616 0.14,-0.173 0.315,-0.31 0.525,-0.413 0.21,-0.103 0.46,-0.154 0.749,-0.154 0.448,0 0.826,0.138 1.134,0.413 0.308,0.275 0.462,0.651 0.462,1.127 0,0.373 -0.072,0.658 -0.217,0.854 -0.145,0.196 -0.329,0.338 -0.553,0.427 -0.224,0.089 -0.469,0.14 -0.735,0.154 -0.266,0.014 -0.52,0.021 -0.763,0.021 l 0,1.4 C -0.471,-0.019 -0.243,-0.019 0,0" />
      </g>
      <g
         id="g592"
         transform="translate(392.3217,503.4014)">
        <path
           inkscape:connector-curvature="0"
           style="fill:#ffffff;fill-opacity:1;fill-rule:nonzero;stroke:none"
           id="path594"
           d="M 0,0 C 0.236,0 0.465,0.038 0.687,0.114 0.908,0.191 1.106,0.317 1.28,0.494 1.453,0.671 1.592,0.901 1.696,1.186 1.8,1.47 1.852,1.817 1.852,2.226 1.852,2.601 1.815,2.939 1.743,3.241 1.67,3.542 1.55,3.801 1.384,4.016 1.217,4.23 0.997,4.395 0.723,4.51 0.449,4.624 0.111,4.681 -0.291,4.681 l -1.165,0 L -1.456,0 0,0 z M 0.114,6.055 C 0.593,6.055 1.039,5.978 1.451,5.826 1.864,5.673 2.221,5.444 2.523,5.139 2.824,4.834 3.06,4.453 3.23,3.995 3.4,3.537 3.485,3 3.485,2.382 3.485,1.841 3.416,1.342 3.277,0.884 3.138,0.427 2.928,0.031 2.648,-0.302 2.367,-0.635 2.016,-0.896 1.597,-1.087 1.177,-1.278 0.683,-1.373 0.114,-1.373 l -3.204,0 0,7.428 3.204,0 z m 7.72,-3.361 c 0.374,0 0.655,0.084 0.842,0.25 0.187,0.167 0.281,0.437 0.281,0.812 0,0.36 -0.094,0.622 -0.281,0.785 C 8.489,4.704 8.208,4.785 7.834,4.785 l -1.79,0 0,-2.091 1.79,0 z m 0.582,3.361 c 0.333,0 0.633,-0.054 0.9,-0.162 C 9.583,5.786 9.812,5.639 10.003,5.451 10.193,5.264 10.339,5.047 10.44,4.801 10.54,4.555 10.59,4.29 10.59,4.005 10.59,3.568 10.498,3.19 10.315,2.871 10.131,2.552 9.831,2.309 9.415,2.143 l 0,-0.021 C 9.616,2.067 9.782,1.982 9.914,1.867 10.046,1.753 10.153,1.618 10.237,1.462 10.32,1.306 10.381,1.134 10.419,0.947 c 0.038,-0.188 0.064,-0.375 0.078,-0.562 0.007,-0.118 0.014,-0.257 0.021,-0.416 0.006,-0.16 0.019,-0.323 0.036,-0.489 0.017,-0.167 0.045,-0.324 0.083,-0.474 0.038,-0.149 0.095,-0.275 0.172,-0.379 l -1.633,0 C 9.085,-1.138 9.03,-0.857 9.009,-0.531 8.988,-0.205 8.957,0.107 8.915,0.406 8.86,0.794 8.742,1.078 8.562,1.259 8.381,1.439 8.087,1.529 7.678,1.529 l -1.634,0 0,-2.902 -1.633,0 0,7.428 4.005,0 z m 7.927,-4.557 -0.936,2.726 -0.021,0 -0.967,-2.726 1.924,0 z m -0.093,4.557 2.777,-7.428 -1.695,0 -0.562,1.654 -2.778,0 -0.582,-1.654 -1.644,0 2.809,7.428 1.675,0 z m 8.416,-7.428 -1.259,5.056 -0.021,0 -1.238,-5.056 -1.654,0 -1.966,7.428 1.633,0 1.176,-5.056 0.021,0 1.29,5.056 1.529,0 1.269,-5.119 0.021,0 1.217,5.119 1.602,0 -1.997,-7.428 -1.623,0 z" />
      </g>
    </g>
  </g>
  <text
     xml:space="preserve"
     style="font-size:16px;font-style:normal;font-weight:normal;line-height:125%;letter-spacing:0px;word-spacing:0px;fill:#000000;fill-opacity:1;stroke:none;font-family:Sans"
     x="26.090839"
     y="39.581631"
     id="text3824"
     sodipodi:linespacing="125%"><tspan
       sodipodi:role="line"
       id="tspan3826"
       x="26.090839"
       y="39.581631"
       style="font-size:7px;fill:#ffffff">CAS</tspan></text>
  <g
     id="g3249"
     transform="matrix(0.58483607,0,0,0.58483607,0.37427378,3.5025527)">
    <g
       transform="matrix(1.25,0,0,-1.25,17.459047,46.551825)"
       id="g24">
      <path
         d="M 0,0 -9.542,-2.917 -12.459,6.625 -2.917,9.542 0,0 z"
         id="path26"
         style="fill:#231f20;fill-opacity:1;fill-rule:nonzero;stroke:none"
         inkscape:connector-curvature="0" />
    </g>
    <g
       transform="matrix(1.25,0,0,-1.25,5.4097971,50.427325)"
       id="g28">
      <path
         d="M 0,0 -3.003,9.823 6.819,12.826 9.823,3.003 0,0 z M -2.637,9.628 0.195,0.366 9.456,3.198 6.625,12.459 -2.637,9.628 z"
         id="path30"
         style="fill:#ffffff;fill-opacity:1;fill-rule:nonzero;stroke:none"
         inkscape:connector-curvature="0" />
    </g>
    <path
       d="m 20.512177,48.916825 -12.4724999,0 0,-12.4725 12.4724999,0 0,12.4725 z"
       id="path32"
       style="fill:#5a5758;fill-opacity:1;fill-rule:nonzero;stroke:none"
       inkscape:connector-curvature="0" />
    <path
       d="m 20.695927,49.099325 -12.8387499,0 0,-12.83875 12.8387499,0 0,12.83875 z m -12.4724999,-0.36625 12.1049999,0 0,-12.10625 -12.1049999,0 0,12.10625 z"
       id="path34"
       style="fill:#ffffff;fill-opacity:1;fill-rule:nonzero;stroke:none"
       inkscape:connector-curvature="0" />
    <g
       transform="matrix(1.25,0,0,-1.25,22.818297,52.069075)"
       id="g36">
      <path
         d="M 0,0 -9.542,2.917 -6.625,12.459 2.917,9.542 0,0 z"
         id="path38"
         style="fill:#c8c7c7;fill-opacity:1;fill-rule:nonzero;stroke:none"
         inkscape:connector-curvature="0" />
    </g>
  </g>
  <g
     transform="matrix(0.04645658,0,0,0.04645658,6.9593588,26.774952)"
     id="g3093"
     style="fill:#ffffff">
    <path
       style="fill:#ffffff;fill-rule:evenodd"
       inkscape:connector-curvature="0"
       clip-rule="evenodd"
       d="m 186.523,42.629 c -5.146,4.192 -9.271,9.407 -9.339,18.68 -3.723,-7.462 0.737,-17.914 9.339,-18.68 z"
       id="path3095" />
    <path
       style="fill:#ffffff;fill-rule:evenodd"
       inkscape:connector-curvature="0"
       clip-rule="evenodd"
       d="m 123.948,53.836 c 7.713,-4.167 10.029,14.72 5.604,19.613 0.609,-9.014 0.136,-16.947 -5.604,-19.613 z"
       id="path3097" />
    <path
       style="fill:#ffffff;fill-rule:evenodd"
       inkscape:connector-curvature="0"
       clip-rule="evenodd"
       d="m 258.439,84.657 c -6.472,7.459 -15.34,1.071 -24.283,0 -19.291,-2.311 -37.813,6.279 -51.368,12.142 -30.483,-15.506 8.09,-36.934 38.293,-35.49 20.49,0.978 34.287,10.132 37.358,23.348 z M 206.138,68.78 c -9.442,5.189 -24.801,4.463 -25.218,18.679 13.235,0.783 15.879,-9.026 28.953,-8.405 -1.278,-3.392 -0.564,-8.776 -3.735,-10.274 z M 249.1,80.922 c -0.981,-4.312 -4.509,-6.076 -10.273,-5.604 -0.558,5.85 7.31,3.274 10.273,5.604 z"
       id="path3099" />
    <path
       style="fill:#ffffff;fill-rule:evenodd"
       inkscape:connector-curvature="0"
       clip-rule="evenodd"
       d="m 135.156,84.657 c 4.476,-1.044 8.57,-2.613 12.142,0 -0.284,6.877 -7.897,6.424 -12.142,9.34 0,5.915 0,11.83 0,17.745 -5.259,4.703 -12.976,6.949 -16.812,13.076 3.135,8.071 8.689,13.726 15.877,17.745 4.63,-0.261 6.327,-5.545 11.208,-2.802 -6.817,22.618 -25.415,0.727 -32.689,-8.406 -2.53,1.206 -3.32,4.151 -7.472,3.736 0.448,-2.938 -1.33,-3.651 -1.868,-5.604 -7.304,1.725 -10.321,7.736 -19.613,7.472 16.933,-7.661 29.157,-20.031 43.896,-29.887 0,-4.358 0,-8.717 0,-13.075 -12.206,-8.964 -38.5,-3.84 -52.302,-11.208 8.317,-21.945 50.114,-12.159 59.775,1.868 z M 88.458,79.054 c 4.574,1.797 12.003,0.818 15.877,-0.935 -4.575,-1.797 -12.004,-0.817 -15.877,0.935 z"
       id="path3101" />
    <path
       style="fill:#ffffff;fill-rule:evenodd"
       inkscape:connector-curvature="0"
       clip-rule="evenodd"
       d="m 262.175,78.119 c 3.953,-1.745 9.671,2.763 15.878,1.868 0.017,4.97 -8.155,5.776 -12.142,3.736 0.127,-2.676 6.411,0.807 6.538,-1.868 -3.247,-1.422 -7.835,-1.504 -10.274,-3.736 z"
       id="path3103" />
    <path
       style="fill:#ffffff;fill-rule:evenodd"
       inkscape:connector-curvature="0"
       clip-rule="evenodd"
       d="m 71.646,81.855 c -23.154,-1.819 -48.734,7.468 -49.5,29.887 -0.111,3.249 0.055,10.499 2.802,14.943 4.358,7.051 15.351,3.564 18.679,13.076 C 26.431,135.632 18.528,125.896 20.278,108.94 22.707,85.399 45.711,76.568 71.646,81.855 z"
       id="path3105" />
    <path
       style="fill:#ffffff;fill-rule:evenodd"
       inkscape:connector-curvature="0"
       clip-rule="evenodd"
       d="M 335.024,98.667 C 328.519,86.182 314.458,81.252 293.929,82.789 309.887,79.15 332.258,83.12 335.024,98.667 z"
       id="path3107" />
    <path
       style="fill:#ffffff;fill-rule:evenodd"
       inkscape:connector-curvature="0"
       clip-rule="evenodd"
       d="m 262.175,87.459 c 1.246,-2.656 4.153,0.721 5.604,0.935 -1.301,2.712 -4.609,-0.265 -5.604,-0.935 z"
       id="path3109" />
    <path
       style="fill:#ffffff;fill-rule:evenodd"
       inkscape:connector-curvature="0"
       clip-rule="evenodd"
       d="m 219.213,88.394 c 9.786,1.591 14.354,12.004 26.151,13.075 14.428,1.31 21.944,-8.832 34.557,-12.142 34.323,-9.008 62.154,22.959 36.425,50.435 -4.15,-9.265 4.082,-13.921 2.802,-25.218 -1.492,-13.156 -14.128,-21.953 -28.953,-19.613 -4.989,0.788 -9.372,6.17 -14.943,8.406 -20.075,8.058 -55.657,7.447 -56.039,-14.943 z"
       id="path3111" />
    <path
       style="fill:#ffffff;fill-rule:evenodd"
       inkscape:connector-curvature="0"
       clip-rule="evenodd"
       d="m 45.495,90.261 c -3.193,5.843 -16.902,9.244 -12.142,26.151 -4.729,-4.163 0.298,-12.912 -0.934,-19.613 4.51,-2.028 8.683,-4.393 13.076,-6.538 z"
       id="path3113" />
    <path
       style="fill:#ffffff;fill-rule:evenodd"
       inkscape:connector-curvature="0"
       clip-rule="evenodd"
       d="m 84.722,108.007 c 4.129,-1.163 5.093,-5.492 11.208,-4.67 3.946,12.136 -11.755,12.458 -23.349,12.142 -1,-4.604 -2.942,-8.267 -6.538,-10.274 -10.696,-1.044 -17.042,2.26 -26.151,2.803 4.91,-19.276 36.187,-8.982 44.83,-10e-4 z"
       id="path3115" />
    <path
       style="fill:#ffffff;fill-rule:evenodd"
       inkscape:connector-curvature="0"
       clip-rule="evenodd"
       d="m 313.543,127.62 c -4.974,1.819 -8.905,-0.382 -14.009,-0.935 -3.296,2.591 -6.112,8.619 -3.736,14.01 -11.935,10.238 -19.867,29.062 -31.755,42.028 -29.346,32.013 -80.396,45.875 -146.633,42.963 -21.421,-0.941 -46.364,-3.273 -56.972,-14.01 -16.806,-17.009 -17.606,-69.736 -2.802,-90.595 1.437,-2.922 -0.408,-9.125 2.802,-10.273 7.459,2.57 3.389,13.441 5.604,19.613 4.615,12.864 30.345,21.159 48.566,23.35 68.329,8.211 126.044,-27.586 170.916,-42.963 1.343,-3.327 0.954,-8.386 3.736,-10.273 5.58,1.948 3.293,6.625 5.604,10.273 5.118,8.085 17.379,8.677 18.679,16.812 z m -56.972,5.604 c 0,4.67 0,9.34 0,14.01 17.53,-3.018 32.683,-8.412 33.623,-28.02 -15.403,0.474 -21.249,10.506 -33.623,14.01 z M 57.636,143.497 c 2.292,-0.261 4.305,-5.573 2.802,-6.538 -0.775,2.338 -2.559,3.669 -2.802,6.538 z m 147.567,5.605 c -0.035,6.262 2.396,10.057 2.802,15.877 15.756,-6.971 39.716,-5.737 41.095,-27.085 -13.92,0.715 -28.93,8.426 -43.897,11.208 z M 66.976,166.847 c 0.883,-6.916 5.052,-16.135 0.934,-22.415 -3.058,4.576 -10.645,19.28 -0.934,22.415 z m 190.529,7.471 c 2.373,-1.989 5.732,-3.469 8.406,-6.538 3.599,-4.131 10.779,-16.792 9.34,-16.812 -10.83,1.82 -26.384,11.069 -17.746,23.35 z M 77.25,170.582 c 4.59,-1.431 8.138,3.009 10.274,0.935 -3.352,-5.56 3.273,-9.159 2.802,-14.943 -5.494,-0.11 -7.863,-3.345 -12.142,-4.67 -5.078,4.07 -1.471,12.317 -0.934,18.678 z m 118.613,-17.745 c -11.24,2.77 -23.607,4.412 -34.557,7.472 0,4.67 0,9.34 0,14.01 16.108,1.165 26.879,-3.008 39.227,-5.604 -1.055,-5.794 -1.038,-12.66 -4.67,-15.878 z m -101.802,18.68 c 8.027,2.247 17.244,3.304 28.019,2.802 -0.616,-4.475 0.96,-10.269 0,-12.142 -8.43,-0.91 -18.129,-0.551 -24.283,-3.735 -1.246,4.357 -1.446,9.76 -3.736,13.075 z m 37.359,-9.34 c 0.224,4.894 -2.273,7.066 -2.802,11.208 6.938,2.091 17.681,0.376 26.151,0.934 0,-4.67 0,-9.34 0,-14.01 -8.841,-0.435 -14.026,2.785 -23.349,1.868 z m 80.321,15.878 c -1.32,11.904 6.023,15.146 7.472,24.283 13.203,-5.166 22.749,-13.987 33.623,-21.481 -5.313,-2.472 -4.873,-10.694 -6.538,-16.812 -9.996,6.193 -21.615,10.762 -34.557,14.01 z m -42.963,12.141 c -0.727,9.132 1.317,15.493 0.934,24.282 18.011,1.2 29.297,-4.325 42.029,-8.405 -2.256,-9.264 -8.135,-14.903 -8.406,-26.151 -10.142,4.802 -20.827,9.059 -34.557,10.274 z M 66.042,203.271 c -0.139,-7.333 -3.821,-11.122 -7.472,-14.943 1.603,5.868 3.745,11.198 7.472,14.943 z m 17.746,8.406 c -2.131,-7.831 -4.333,-15.592 -11.208,-18.679 -0.543,5.212 2.791,6.548 2.802,11.207 -0.58,3.212 -5.024,1.893 -5.604,2.802 3.294,2.932 8.77,3.682 14.01,4.67 z m 49.5,-15.877 c 0.056,8.038 3.105,13.084 2.802,21.481 8.71,-0.318 18.873,0.815 26.151,-0.935 -0.284,-4.262 -1.548,-15.125 -0.934,-23.349 -8.475,1.855 -19.318,4.006 -28.019,2.803 z m -41.095,16.811 c 3.603,1.378 7.057,2.905 12.142,2.802 -1.25,-6.222 -5.409,-9.535 -5.604,-16.812 -4.921,-0.06 -6.855,-3.107 -12.142,-2.802 0.867,6.393 8.335,9.775 5.604,16.812 z m 14.01,-14.943 c 1.691,7.025 5.9,11.534 7.472,18.679 4.415,0.281 11.899,2.389 15.877,0 -0.872,-12.776 -8.001,-23.396 -23.349,-18.679 z"
       id="path3117" />
    <path
       style="fill:#ffffff;fill-rule:evenodd"
       inkscape:connector-curvature="0"
       clip-rule="evenodd"
       d="m 197.731,121.082 c 0.981,11.655 -1.498,23.475 -13.075,19.613 -1.245,-8.125 8.42,-7.704 6.537,-14.01 -1.758,-5.887 -9.642,-2.651 -16.811,-5.604 1.66,-11.23 19.463,-5.277 23.349,10e-4 z"
       id="path3119" />
    <path
       style="fill:#ffffff;fill-rule:evenodd"
       inkscape:connector-curvature="0"
       clip-rule="evenodd"
       d="m 200.533,115.479 c 3.937,-0.161 0.641,2.091 0,2.802 3.373,10.495 23.844,-1.871 28.02,7.472 -8.342,-5.766 -32.336,5.054 -28.02,-10.274 z"
       id="path3121" />
    <path
       style="fill:#ffffff;fill-rule:evenodd"
       inkscape:connector-curvature="0"
       clip-rule="evenodd"
       d="m 31.485,117.346 c 3.703,3.146 6.414,7.285 11.208,9.34 -5.648,2.512 -10.76,-3.545 -11.208,-9.34 z"
       id="path3123" />
    <path
       style="fill:#ffffff;fill-rule:evenodd"
       inkscape:connector-curvature="0"
       clip-rule="evenodd"
       d="m 180.92,129.487 c -0.19,2.923 0.63,6.856 -0.934,8.406 -5.957,-4.733 -16.772,0.167 -25.217,-2.802 1.014,-10.106 18.107,-7.882 26.151,-5.604 z"
       id="path3125" />
    <path
       style="fill:#ffffff;fill-rule:evenodd"
       inkscape:connector-curvature="0"
       clip-rule="evenodd"
       d="m 258.439,207.007 c 1.207,2.192 -6.614,3.027 -10.273,4.67 -27.143,12.185 -56.536,34.2 -97.133,30.821 46.185,-1.447 70.254,-25.011 107.406,-35.491 z"
       id="path3127" />
    <path
       style="fill:#ffffff;fill-rule:evenodd"
       inkscape:connector-curvature="0"
       clip-rule="evenodd"
       d="m 65.108,225.687 c 9.354,12.75 27.871,16.337 48.566,17.745 -19.862,1.492 -45.086,0.258 -48.566,-17.745 z"
       id="path3129" />
    <path
       style="fill:#ffffff;fill-rule:evenodd"
       inkscape:connector-curvature="0"
       clip-rule="evenodd"
       d="m 161.307,232.225 c -13.334,0.617 -33.814,3.582 -48.566,0.934 0.823,0.147 -5.321,1.021 -1.868,-0.934 17.42,0.803 35.459,-1.304 50.434,0 z"
       id="path3131" />
    <path
       style="fill:#ffffff;fill-rule:evenodd"
       inkscape:connector-curvature="0"
       clip-rule="evenodd"
       d="m 127.684,243.432 c 3.443,-2.16 10.882,-0.325 15.877,-0.934 -3.443,2.16 -10.882,0.325 -15.877,0.934 z"
       id="path3133" />
    <path
       style="fill:#ffffff;fill-rule:evenodd"
       inkscape:connector-curvature="0"
       clip-rule="evenodd"
       d="M 38.023,42.629 C 82.539,0.251 168.45,6.151 250.968,7.138 c 7.848,0.094 16.719,-1.368 23.349,0 11.871,2.451 25.224,17.023 31.755,28.02 4.845,8.154 7.067,20.015 11.208,27.085 13.085,22.346 46.477,27.908 37.358,67.245 -4.239,18.291 -23.693,25.693 -33.623,43.897 -3.577,6.559 -4.243,13.956 -7.472,19.613 -12.425,21.775 -44.768,38.018 -71.915,50.434 -20.634,9.438 -43.315,23.67 -62.576,28.953 -12.695,3.482 -31.551,6.412 -50.435,10.273 -27.106,5.544 -57.922,8.286 -79.387,-0.934 C 38.084,276.937 25.457,265.437 23.079,254.639 17.501,229.31 34.181,186.686 26.815,156.573 21.759,135.903 3.909,121.648 10.003,95.865 15.172,74.001 40.463,75.064 38.023,42.629 z m 308.209,87.793 c 10.41,-28.818 -14.1,-53.59 -47.633,-52.303 6.19,-2.108 12.84,-0.034 19.613,0 -16.228,-19.917 -20.158,-60.96 -54.17,-64.443 -47.05,-4.819 -108.237,1.462 -153.17,5.604 31.311,8.204 65.113,-5.872 98.067,-2.802 30.411,2.834 51.748,21.332 68.18,35.491 C 257.875,41.217 237.79,21.121 208.005,18.346 183.239,16.038 165.727,22.774 144.495,23.95 127.481,24.892 109.8,20.554 94.995,22.082 77.603,23.878 47.986,38.727 43.627,51.97 c -1.588,4.823 0.142,10.746 -1.868,15.877 -7.14,18.231 -32.366,23.279 -23.349,54.17 2.51,8.6 9.292,13.555 12.142,19.614 8.393,17.847 5.012,46.601 2.802,68.18 -1.381,13.484 -5.358,29.068 -2.802,42.028 6.843,34.686 73.448,29.463 105.539,21.481 11.469,-2.854 21.589,-8.207 30.821,-9.34 4.057,-0.498 8.442,1.187 14.944,0 9.153,-1.672 21.952,-11.397 32.688,-16.812 31.866,-16.069 75.01,-30.342 92.463,-57.906 4.461,-7.046 6.14,-18.473 9.34,-24.283 2.247,-4.08 8.411,-4.896 7.472,-10.273 0.399,1.505 -3.482,3.134 -3.736,0.934 11.353,-5.071 22.511,-15.145 26.149,-25.218 z"
       id="path3135" />
    <path
       style="fill:#ffffff;fill-rule:evenodd"
       inkscape:connector-curvature="0"
       clip-rule="evenodd"
       d="m 77.25,36.091 c 7.441,-13.146 29.974,-2.976 47.632,-2.802 26.067,0.258 51.737,-8.142 75.651,-6.538 28.813,1.933 54.964,15.638 69.114,32.689 -18.568,-14.5 -45.291,-31.016 -81.256,-30.821 -19.053,0.104 -38.58,7.634 -63.51,6.538 -18.758,-0.825 -35.602,-7.312 -47.631,0.934 z"
       id="path3137" />
    <path
       style="fill:#ffffff;fill-rule:evenodd"
       inkscape:connector-curvature="0"
       clip-rule="evenodd"
       d="m 182.788,39.827 c -2.311,0.118 -1.588,-1.144 0,-0.935 32.046,-2.848 63.885,1.937 74.717,23.35 C 243.382,43.987 216.276,38.717 182.788,39.827 z"
       id="path3139" />
    <path
       style="fill:#ffffff;fill-rule:evenodd"
       inkscape:connector-curvature="0"
       clip-rule="evenodd"
       d="M 134.222,48.232 C 116.583,42.421 80.068,39.956 74.448,61.308 71.786,48.302 92.691,40.907 112.74,41.694 c 8.045,0.317 18.784,1.079 21.482,6.538 z"
       id="path3141" />
    <path
       style="fill:#ffffff;fill-rule:evenodd"
       inkscape:connector-curvature="0"
       clip-rule="evenodd"
       d="m 315.411,148.167 c 19.058,-3.155 22.938,-26.103 19.613,-48.566 5.83,13.193 0.506,26.607 -0.934,40.161 -5.823,3.205 -9.54,8.515 -18.679,8.405 z"
       id="path3143" />
    <path
       style="fill:#ffffff;fill-rule:evenodd"
       inkscape:connector-curvature="0"
       clip-rule="evenodd"
       d="m 47.363,228.488 c 2.129,1.295 0.348,6.501 0.934,9.34 35.593,29.644 117.108,12.831 158.774,-0.934 25.871,-8.547 47.983,-23.19 71.915,-29.888 -38.938,26.75 -124.252,53.648 -195.199,48.566 -16.605,-1.188 -40.066,-7.648 -36.424,-27.084 z"
       id="path3145" />
  </g>
</svg>
